<?xml version="1.0" encoding="UTF-8"?>
<svg id="Layer_1" xmlns="http://www.w3.org/2000/svg" version="1.1" viewBox="0 0 640 640">
  <!-- Generator: Adobe Illustrator 29.4.0, SVG Export Plug-In . SVG Version: 2.1.0 Build 152)  -->
  <defs>
    <style>
      .st0 {
        fill: #74a4bc;
      }
    </style>
  </defs>
  <path class="st0" d="M462.5,320c-79.5.8-143.3,66-142.5,145.5s66,143.3,145.5,142.5,143.3-66,142.5-145.5-66-143.3-145.5-142.5ZM531.1,460.01c6.3,6.2,6.4,16.3.2,22.6l-55.4,56.6c-6.2,6.3-16.3,6.4-22.6.2l-56.6-55.4c-6.3-6.2-6.4-16.3-.2-22.6,6.2-6.3,16.3-6.4,22.6-.2l29,28.4-.9-89.4c-.1-8.8,7-16.1,15.8-16.2s16.1,7,16.2,15.8l.9,89.4,28.4-29c6.2-6.3,16.3-6.4,22.6-.2h0Z"/>
  <path class="st0" d="M464,272c16.6,0,32.7,2.1,48,6V112c0-26.5-21.5-48-48-48H160c-53,0-96,43-96,96v320c0,53,43,96,96,96h148c-13.7-19-24-40.7-30-64h-118c-17.7,0-32-14.3-32-32s14.3-32,32-32h112.7c8.1-98.6,90.7-176,191.3-176Z"/>
</svg>